<?xml version="1.0" encoding="utf-8"?>
<!-- Generator: Adobe Illustrator 16.0.0, SVG Export Plug-In . SVG Version: 6.00 Build 0)  -->
<!DOCTYPE svg PUBLIC "-//W3C//DTD SVG 1.1//EN" "http://www.w3.org/Graphics/SVG/1.1/DTD/svg11.dtd">
<svg version="1.1" id="Layer_1" xmlns="http://www.w3.org/2000/svg" xmlns:xlink="http://www.w3.org/1999/xlink" x="0px" y="0px"
	 width="18px" height="18px" viewBox="0 0 18 18" enable-background="new 0 0 18 18" xml:space="preserve">
<path fill="#121212" d="M9.883,16.621c0,0.744-0.603,1.348-1.348,1.348l0,0c-0.745,0-1.348-0.604-1.348-1.348V1.348
	C7.188,0.603,7.79,0,8.535,0l0,0C9.28,0,9.883,0.603,9.883,1.348V16.621z"/>
<path fill="#121212" d="M17.969,9.434c0,0.744-0.604,1.348-1.348,1.348H1.348C0.603,10.781,0,10.178,0,9.434l0,0
	c0-0.745,0.603-1.348,1.348-1.348h15.273C17.365,8.086,17.969,8.688,17.969,9.434L17.969,9.434z"/>
</svg>
